<svg width="48" height="15" xmlns="http://www.w3.org/2000/svg" xmlns:xlink="http://www.w3.org/1999/xlink" xml:space="preserve" overflow="hidden"><g transform="translate(-234 -650)"><g><g><g><g><path d="M33.5763 16.7428 36.4334 19.6013 41.1169 19.6013 41.1169 24.2862 43.9768 27.1447 43.9768 16.7428ZM3.66519 17.4437 0 26.5317 2.39811 26.5317 3.07562 24.7328 7.14485 24.7328 7.89245 26.5317 10.3442 26.5317 6.2873 17.4437ZM11.3776 17.4437 11.3776 26.5235 13.6465 26.5235 13.6465 20.8574 16.0982 23.72 16.4432 23.72 18.8949 20.8683 18.8949 26.5317 21.1638 26.5317 21.1638 17.4437 19.1862 17.4437 16.2687 20.8244 13.3538 17.4437ZM22.8899 17.4437 22.8899 26.5317 26.6595 26.5317C30.2862 26.5317 31.9367 24.6146 31.9367 22.0021 31.9367 19.5106 30.2203 17.4437 26.9028 17.4437ZM25.1561 19.112 26.6073 19.112C28.7512 19.112 29.5936 20.4148 29.5936 21.9884 29.5936 23.3228 28.912 24.8689 26.632 24.8689L25.1547 24.8689ZM5.02847 19.6123 6.47833 23.1524 3.6803 23.1524ZM36.4292 20.1743 33.4897 23.1112 33.4897 27.234 37.6056 27.234 40.5452 24.2889 36.4292 24.2889Z" fill="#ED1C24" fill-rule="nonzero" fill-opacity="1" transform="matrix(1.06875 0 0 1 235 635.129)"/></g></g></g></g></g></svg>